<?xml version="1.0" encoding="utf-8"?>
<!-- Generator: Adobe Illustrator 23.0.4, SVG Export Plug-In . SVG Version: 6.00 Build 0)  -->
<svg version="1.1" id="Layer_1" xmlns="http://www.w3.org/2000/svg" xmlns:xlink="http://www.w3.org/1999/xlink" x="0px" y="0px"
	 viewBox="0 0 367.55 70.23" style="enable-background:new 0 0 367.55 70.23;" xml:space="preserve">
<style type="text/css">
	.st0{fill:#003063;}
	.st1{fill:url(#SVGID_1_);}
</style>
<g>
	<path class="st0" d="M135.46,53.21c0,0.58-0.22,1.06-0.67,1.45c-0.45,0.39-0.98,0.58-1.6,0.58c-0.97,0-1.64-0.46-2.03-1.39
		l-4.12-9.4h-21.87l-4.18,9.4c-0.39,0.93-1.06,1.39-2.03,1.39c-0.62,0-1.16-0.2-1.62-0.61c-0.46-0.41-0.7-0.9-0.7-1.48
		c0-0.31,0.08-0.62,0.23-0.93l16.59-36.89c0.23-0.54,0.58-0.95,1.04-1.22c0.46-0.27,0.97-0.41,1.51-0.41c0.58,0,1.1,0.14,1.57,0.43
		c0.46,0.29,0.81,0.69,1.04,1.19l16.59,36.89C135.38,52.53,135.46,52.86,135.46,53.21z M106.92,40.51h18.39l-9.22-20.82
		L106.92,40.51z"/>
	<path class="st0" d="M165.85,37.2v15.72c0,0.74-0.2,1.31-0.61,1.71c-0.41,0.41-0.98,0.61-1.71,0.61c-0.73,0-1.31-0.2-1.74-0.61
		c-0.43-0.41-0.64-0.98-0.64-1.71V37.49c0-2.63-0.51-4.54-1.54-5.74c-1.02-1.2-2.66-1.8-4.9-1.8c-2.59,0-4.66,0.79-6.21,2.38
		c-1.55,1.59-2.32,3.73-2.32,6.44v14.15c0,0.74-0.2,1.31-0.61,1.71c-0.41,0.41-0.98,0.61-1.71,0.61c-0.73,0-1.31-0.2-1.74-0.61
		c-0.43-0.41-0.64-0.98-0.64-1.71V28.44c0-0.7,0.21-1.26,0.64-1.68c0.42-0.43,1-0.64,1.74-0.64c0.7,0,1.25,0.21,1.65,0.64
		c0.41,0.43,0.61,0.97,0.61,1.62v2.96c0.93-1.74,2.22-3.06,3.89-3.97c1.66-0.91,3.56-1.36,5.68-1.36
		C162.47,26.01,165.85,29.74,165.85,37.2z"/>
	<path class="st0" d="M189.52,53.38c0,0.66-0.24,1.15-0.73,1.48c-0.48,0.33-1.21,0.45-2.18,0.38l-1.57-0.12
		c-3.09-0.23-5.38-1.16-6.84-2.78c-1.47-1.62-2.2-4.08-2.2-7.37V30.42h-3.89c-0.66,0-1.17-0.16-1.54-0.49
		c-0.37-0.33-0.55-0.76-0.55-1.31c0-0.58,0.18-1.04,0.55-1.39c0.37-0.35,0.88-0.52,1.54-0.52H176v-6.55c0-0.73,0.21-1.31,0.64-1.71
		c0.43-0.41,1-0.61,1.74-0.61c0.7,0,1.26,0.2,1.68,0.61c0.43,0.41,0.64,0.98,0.64,1.71v6.55h6.44c0.62,0,1.11,0.17,1.48,0.52
		c0.37,0.35,0.55,0.81,0.55,1.39c0,0.54-0.18,0.98-0.55,1.31c-0.37,0.33-0.86,0.49-1.48,0.49h-6.44v14.79
		c0,2.13,0.44,3.66,1.31,4.61s2.17,1.48,3.92,1.59l1.57,0.12C188.84,51.65,189.52,52.26,189.52,53.38z"/>
	<path class="st0" d="M215.96,28.82c1.7,1.88,2.55,4.67,2.55,8.38v15.72c0,0.74-0.21,1.31-0.64,1.71c-0.43,0.41-0.99,0.61-1.68,0.61
		c-0.73,0-1.31-0.2-1.74-0.61c-0.43-0.41-0.64-0.98-0.64-1.71v-15.6c0-2.51-0.51-4.37-1.54-5.57c-1.02-1.2-2.66-1.8-4.9-1.8
		c-2.59,0-4.66,0.79-6.21,2.38c-1.55,1.59-2.32,3.73-2.32,6.44v14.15c0,0.74-0.2,1.31-0.61,1.71c-0.41,0.41-0.98,0.61-1.71,0.61
		c-0.73,0-1.31-0.2-1.74-0.61c-0.43-0.41-0.64-0.98-0.64-1.71V16.03c0-0.66,0.22-1.2,0.67-1.62c0.44-0.43,1.02-0.64,1.71-0.64
		c0.73,0,1.31,0.2,1.71,0.61c0.41,0.41,0.61,0.96,0.61,1.65v15.2c0.93-1.7,2.22-3,3.89-3.89c1.66-0.89,3.56-1.33,5.68-1.33
		C211.75,26.01,214.26,26.95,215.96,28.82z"/>
	<path class="st0" d="M243.52,28.1c0,0.62-0.17,1.11-0.52,1.48c-0.35,0.37-0.95,0.59-1.8,0.67l-1.74,0.17
		c-2.59,0.23-4.51,1.15-5.77,2.76c-1.26,1.6-1.89,3.49-1.89,5.66v14.09c0,0.77-0.21,1.35-0.64,1.74c-0.43,0.39-0.99,0.58-1.68,0.58
		c-0.7,0-1.27-0.2-1.71-0.61c-0.45-0.41-0.67-0.98-0.67-1.71V28.44c0-0.73,0.23-1.3,0.7-1.71s1.02-0.61,1.68-0.61
		c0.62,0,1.14,0.2,1.57,0.61s0.64,0.96,0.64,1.65v3.25c0.81-1.7,1.96-3,3.45-3.89c1.49-0.89,3.2-1.41,5.13-1.57l0.81-0.06
		C242.7,26.01,243.52,26.67,243.52,28.1z"/>
	<path class="st0" d="M251.67,53.56c-2.03-1.2-3.6-2.91-4.7-5.13c-1.1-2.22-1.65-4.8-1.65-7.74c0-2.94,0.55-5.52,1.65-7.74
		c1.1-2.22,2.67-3.93,4.7-5.13s4.38-1.8,7.05-1.8s5.03,0.6,7.08,1.8c2.05,1.2,3.62,2.91,4.73,5.13c1.1,2.22,1.65,4.8,1.65,7.74
		c0,2.94-0.55,5.52-1.65,7.74c-1.1,2.22-2.68,3.94-4.73,5.13c-2.05,1.2-4.41,1.8-7.08,1.8S253.7,54.76,251.67,53.56z M265.12,48.72
		c1.49-1.84,2.23-4.51,2.23-8.03c0-3.44-0.75-6.1-2.26-7.98c-1.51-1.88-3.63-2.81-6.38-2.81c-2.75,0-4.87,0.94-6.38,2.81
		c-1.51,1.88-2.26,4.53-2.26,7.98c0,3.48,0.74,6.15,2.23,8c1.49,1.86,3.62,2.78,6.41,2.78S263.63,50.55,265.12,48.72z"/>
	<path class="st0" d="M299.95,27.86c1.89,1.24,3.36,2.97,4.41,5.19c1.04,2.22,1.57,4.8,1.57,7.74s-0.52,5.5-1.57,7.69
		c-1.04,2.18-2.5,3.88-4.38,5.08c-1.88,1.2-4.07,1.8-6.58,1.8c-2.2,0-4.13-0.48-5.77-1.45c-1.64-0.97-2.89-2.34-3.74-4.12v13.63
		c0,0.7-0.2,1.25-0.61,1.65s-0.98,0.61-1.71,0.61c-0.74,0-1.32-0.21-1.74-0.64c-0.43-0.43-0.64-0.97-0.64-1.62V28.44
		c0-0.7,0.21-1.26,0.64-1.68c0.42-0.43,1-0.64,1.74-0.64c0.73,0,1.3,0.21,1.71,0.64s0.61,0.99,0.61,1.68v3.13
		c0.85-1.78,2.1-3.15,3.74-4.12c1.64-0.97,3.57-1.45,5.77-1.45C295.87,26.01,298.06,26.63,299.95,27.86z M298.85,48.69
		c1.51-1.86,2.26-4.48,2.26-7.89c0-3.4-0.75-6.06-2.26-7.98s-3.63-2.87-6.38-2.87c-2.75,0-4.86,0.93-6.35,2.78
		c-1.49,1.86-2.23,4.5-2.23,7.95c0,3.44,0.74,6.1,2.23,7.98c1.49,1.88,3.61,2.81,6.35,2.81C295.21,51.47,297.34,50.54,298.85,48.69z
		"/>
	<path class="st0" d="M317.61,53.56c-2.03-1.2-3.6-2.91-4.7-5.13c-1.1-2.22-1.65-4.8-1.65-7.74c0-2.94,0.55-5.52,1.65-7.74
		c1.1-2.22,2.67-3.93,4.7-5.13s4.38-1.8,7.05-1.8s5.03,0.6,7.08,1.8c2.05,1.2,3.62,2.91,4.73,5.13c1.1,2.22,1.65,4.8,1.65,7.74
		c0,2.94-0.55,5.52-1.65,7.74c-1.1,2.22-2.68,3.94-4.73,5.13c-2.05,1.2-4.41,1.8-7.08,1.8S319.64,54.76,317.61,53.56z M331.07,48.72
		c1.49-1.84,2.23-4.51,2.23-8.03c0-3.44-0.75-6.1-2.26-7.98c-1.51-1.88-3.63-2.81-6.38-2.81c-2.75,0-4.87,0.94-6.38,2.81
		c-1.51,1.88-2.26,4.53-2.26,7.98c0,3.48,0.74,6.15,2.23,8c1.49,1.86,3.62,2.78,6.41,2.78S329.58,50.55,331.07,48.72z"/>
	<path class="st0" d="M349.57,54.72c-1.6-0.42-3.03-1.02-4.26-1.8c-0.7-0.46-1.19-0.9-1.48-1.3s-0.43-0.9-0.43-1.48
		c0-0.5,0.14-0.92,0.43-1.25c0.29-0.33,0.67-0.49,1.13-0.49c0.46,0,1.14,0.29,2.03,0.87c1.16,0.7,2.31,1.25,3.45,1.65
		s2.56,0.61,4.26,0.61c2.09,0,3.71-0.37,4.87-1.1c1.16-0.73,1.74-1.8,1.74-3.19c0-0.85-0.21-1.54-0.64-2.06
		c-0.43-0.52-1.16-0.99-2.2-1.39c-1.04-0.41-2.57-0.82-4.58-1.25c-3.4-0.73-5.84-1.72-7.31-2.96s-2.2-2.92-2.2-5.05
		c0-1.66,0.46-3.13,1.39-4.41c0.93-1.28,2.21-2.28,3.86-3.02c1.64-0.73,3.51-1.1,5.6-1.1c1.51,0,2.97,0.2,4.38,0.61
		c1.41,0.41,2.66,0.98,3.74,1.71c1.31,0.93,1.97,1.9,1.97,2.9c0,0.5-0.16,0.93-0.46,1.28c-0.31,0.35-0.68,0.52-1.1,0.52
		c-0.46,0-1.16-0.33-2.09-0.99c-1.08-0.7-2.11-1.24-3.07-1.62c-0.97-0.39-2.17-0.58-3.6-0.58c-1.82,0-3.28,0.41-4.38,1.22
		c-1.1,0.81-1.65,1.89-1.65,3.25c0,0.85,0.2,1.54,0.61,2.06c0.41,0.52,1.08,0.99,2.03,1.39c0.95,0.41,2.31,0.8,4.09,1.19
		c2.63,0.58,4.67,1.22,6.12,1.91c1.45,0.7,2.48,1.55,3.1,2.55c0.62,1.01,0.93,2.28,0.93,3.83c0,2.44-1.02,4.4-3.07,5.89
		c-2.05,1.49-4.76,2.23-8.12,2.23C352.87,55.36,351.17,55.14,349.57,54.72z"/>
</g>
<linearGradient id="SVGID_1_" gradientUnits="userSpaceOnUse" x1="40.9246" y1="7.6418" x2="40.9246" y2="70.4812">
	<stop  offset="0" style="stop-color:#65B32E"/>
	<stop  offset="1" style="stop-color:#00A6E2"/>
</linearGradient>
<path class="st1" d="M78.72,50.93C53.99,10.71,51.08,5.98,50.66,5.35l0.01,0c-1.06-1.48-4.06-4.96-8.93-5.3L41.6,0.03
	C41.4,0.01,41.19,0,40.98,0c-2.17,0-4.23,0.63-6.11,1.87c0,0,0,0,0,0l0,0L34.8,1.92c-2.49,1.67-3.78,3.85-3.82,3.92L2.19,52.57
	c-2.07,3.47-2.05,7.92,0.06,11.62c2.09,3.68,5.79,5.88,9.89,5.88c7.02,0,10.26-5.14,11-7.89C23.37,61.48,28.49,46.8,44,42.5
	c0.67-0.19,1.38-0.35,2.14-0.51l14.49,23.5l0.15,0.2c1.83,2.01,5.42,4.54,9.5,4.54c2.22,0,4.58-0.75,6.88-2.75
	C83.55,61.88,80.99,54.23,78.72,50.93z M36.32,4.08c1.44-0.95,3.01-1.44,4.65-1.44c0.14,0,0.28,0.01,0.42,0.02l0.15,0.01
	c3.83,0.27,6.27,3.23,6.96,4.18c0.58,0.92,13.61,22.11,23.29,37.85c-5.5-3.77-14.11-7.53-25.2-5.5l-13.74-22.3
	c-1.36-2.2-1.89-4.37-1.62-6.44l2.02-3.27C33.25,7.18,34.32,5.4,36.32,4.08L36.32,4.08z M43.29,39.96
	C26.12,44.71,20.83,60.72,20.61,61.4l-0.02,0.06c-0.02,0.06-1.65,5.97-8.46,5.97c-3.13,0-5.97-1.7-7.59-4.55
	c-1.63-2.87-1.67-6.31-0.09-8.95l25.66-41.65c0.15,1.69,0.76,3.42,1.84,5.18l13.53,21.95l-0.84,0.15l0.02,0.04
	C44.19,39.72,43.73,39.83,43.29,39.96z M75.41,65.48c-5.88,5.13-11.83-0.69-12.61-1.5L48.94,41.52C65.79,39.43,76,51.75,76.54,52.41
	c0.17,0.25,1.34,2.08,1.83,4.53C79.03,60.32,78.03,63.19,75.41,65.48z"/>
</svg>
